HIERARCHY
ROOT hip
{
	OFFSET 0.000000 0.000000 0.000000
	CHANNELS 6 Xposition Yposition Zposition Xrotation Zrotation Yrotation 
	JOINT abdomen
	{
		OFFSET 0.000000 3.422050 0.000000
		CHANNELS 3 Xrotation Zrotation Yrotation 
		JOINT chest
		{
			OFFSET 0.000000 8.486693 -0.684411
			CHANNELS 3 Xrotation Zrotation Yrotation 
			JOINT neck
			{
				OFFSET 0.000000 10.266162 -0.273764
				CHANNELS 3 Xrotation Zrotation Yrotation 
				JOINT head
				{
					OFFSET 0.000000 3.148285 0.000000
					CHANNELS 3 Xrotation Zrotation Yrotation 
					End Site
					{
						OFFSET 0.000000 3.148289 0.000000
					}
				}
			}
			JOINT lCollar
			{
				OFFSET 3.422053 6.707223 -0.821293
				CHANNELS 3 Yrotation Zrotation Xrotation 
				JOINT lShldr
				{
					OFFSET 3.285171 0.000000 0.000000
					CHANNELS 3 Zrotation Yrotation Xrotation 
					JOINT lForeArm
					{
						OFFSET 10.129278 0.000000 0.000000
						CHANNELS 3 Yrotation Zrotation Xrotation 
						JOINT lHand
						{
							OFFSET 8.486692 0.000000 0.000000
							CHANNELS 3 Zrotation Yrotation Xrotation 
							End Site
							{
								OFFSET 4.106464 0.000000 0.000000
							}
						}
					}
				}
			}
			JOINT rCollar
			{
				OFFSET -3.558935 6.707223 -0.821293
				CHANNELS 3 Yrotation Zrotation Xrotation 
				JOINT rShldr
				{
					OFFSET -3.148289 0.000000 0.000000
					CHANNELS 3 Zrotation Yrotation Xrotation 
					JOINT rForeArm
					{
						OFFSET -10.266159 0.000000 0.000000
						CHANNELS 3 Yrotation Zrotation Xrotation 
						JOINT rHand
						{
							OFFSET -8.349810 0.000000 0.000000
							CHANNELS 3 Zrotation Yrotation Xrotation 
							End Site
							{
								OFFSET -4.106464 0.000000 0.000000
							}
						}
					}
				}
			}
		}
	}
	JOINT lThigh
	{
		OFFSET 5.338403 -1.642589 1.368821
		CHANNELS 3 Xrotation Zrotation Yrotation 
		JOINT lShin
		{
			OFFSET -2.053232 -20.121670 0.000000
			CHANNELS 3 Xrotation Zrotation Yrotation 
			JOINT lFoot
			{
				OFFSET 0.000000 -19.300380 -1.231939
				CHANNELS 3 Xrotation Yrotation Zrotation 
				End Site
				{
					OFFSET 0.000000 -2.463878 4.653993
				}
			}
		}
	}
	JOINT rThigh
	{
		OFFSET -5.338403 -1.642589 1.368821
		CHANNELS 3 Xrotation Zrotation Yrotation 
		JOINT rShin
		{
			OFFSET 2.053232 -20.121670 0.000000
			CHANNELS 3 Xrotation Zrotation Yrotation 
			JOINT rFoot
			{
				OFFSET 0.000000 -19.300380 -1.231939
				CHANNELS 3 Xrotation Yrotation Zrotation 
				End Site
				{
					OFFSET 0.000000 -2.463878 4.653993
				}
			}
		}
	}
}
MOTION
Frames: 18
Frame Time: 0.033264
0.000000 43.528500 0.000000 0.000000 0.000000 0.000000 0.000000 0.000000 0.000000 0.000000 0.000000 0.000000 0.000000 0.000000 0.000000 0.000000 0.000000 0.000000 0.000000 0.000000 0.000000 0.000000 0.000000 0.000000 0.000000 0.000000 0.000000 0.000000 0.000000 0.000000 0.000000 0.000000 0.000000 0.000000 0.000000 0.000000 0.000000 0.000000 0.000000 0.000000 0.000000 0.000000 0.000000 0.000000 0.000000 0.000000 0.000000 0.000000 0.000000 0.000000 0.000000 0.000000 0.000000 0.000000 0.000000 0.000000 0.000000 0.000000 0.000000 0.000000 
0.723890 43.147030 -8.203217 0.000000 0.000000 0.000000 -2.189393 -0.488619 -0.401654 38.093262 -0.439793 -1.592896 0.215069 0.000000 0.000000 0.152119 0.000000 0.000000 -22.197651 -8.658590 -5.188235 -53.827229 -12.224161 -5.425622 -43.017544 -3.023014 6.038038 12.345345 2.563321 -5.123667 22.193802 8.655321 -5.187261 53.823078 12.220833 -5.427647 43.013916 3.019573 6.039407 -12.348726 -2.566953 -5.123220 5.682788 10.211601 7.287926 22.086639 -1.562908 -0.399472 -9.893090 10.022200 -15.081878 5.279418 -6.699563 -2.615107 22.286259 1.321807 0.518798 -9.770400 -15.246048 12.948133 
0.723890 43.147030 -8.437508 1.270525 0.000000 0.000000 -1.579048 -0.488690 -0.401599 35.236664 -0.439926 -1.593055 0.274630 0.000000 0.000000 0.193832 0.000000 0.000000 -21.731022 -8.926104 -4.372290 -54.090038 -12.223028 -5.349777 -43.017551 -3.023014 6.038039 12.275658 2.594998 -4.822678 21.696575 8.892325 -4.363412 54.078930 12.220049 -5.351751 43.013916 3.019573 6.039407 -12.255853 -2.589223 -4.818977 3.612443 10.215213 7.111200 22.898291 -1.414373 -0.428269 -9.893090 10.022200 -15.081878 3.224884 -6.655232 -2.530675 23.097460 1.158159 0.545960 -9.770400 -15.246048 12.948133 
0.723890 43.147030 -8.671799 2.543576 0.000000 0.000000 -0.968426 -0.488763 -0.401544 32.349937 -0.440069 -1.593207 0.334194 0.000000 0.000000 0.235547 0.000000 0.000000 -21.259754 -9.187277 -3.552722 -54.352871 -12.221557 -5.273933 -43.017544 -3.023014 6.038038 12.206126 2.627044 -4.521684 21.195095 9.122465 -3.536109 54.334805 12.218931 -5.275854 43.013916 3.019573 6.039407 -12.163083 -2.611988 -4.514726 1.531218 10.212510 6.933528 23.710493 -1.265321 -0.454979 -9.893089 10.022201 -15.081880 1.159813 -6.607667 -2.447475 23.909218 0.994006 0.570821 -9.770401 -15.246050 12.948134 
0.723890 43.147030 -8.906090 3.818847 0.000000 0.000000 -0.357560 -0.488835 -0.401490 29.436354 -0.440220 -1.593355 0.393761 0.000000 0.000000 0.277262 0.000000 0.000000 -20.783968 -9.441980 -2.729658 -54.615711 -12.219741 -5.198091 -43.017551 -3.023014 6.038039 12.136755 2.659457 -4.220689 20.689512 9.345619 -2.705499 54.590679 12.217481 -5.199956 43.013920 3.019573 6.039408 -12.070424 -2.635248 -4.210472 -0.559560 10.203404 6.755260 24.523172 -1.115796 -0.479588 -9.893091 10.022200 -15.081878 -0.914521 -6.556915 -2.365692 24.721464 0.829396 0.593369 -9.770400 -15.246048 12.948133 
0.723890 43.147030 -9.140381 5.096024 0.000000 0.000000 0.253514 -0.488908 -0.401437 26.499313 -0.440380 -1.593495 0.453331 0.000000 0.000000 0.318979 0.000000 0.000000 -20.303797 -9.690088 -1.903229 -54.878563 -12.217587 -5.122254 -43.017540 -3.023013 6.038038 12.067545 2.692238 -3.919698 20.179976 9.561673 -1.871738 54.846584 12.215702 -5.124064 43.013916 3.019573 6.039407 -11.977881 -2.659001 -3.906222 -2.658525 10.187827 6.576747 25.336260 -0.965843 -0.502086 -9.893090 10.022200 -15.081878 -2.996809 -6.503036 -2.285505 25.534126 0.664380 0.613591 -9.770398 -15.246048 12.948133 
0.723890 43.147030 -9.374673 6.374799 0.000000 0.000000 0.864763 -0.488982 -0.401385 23.542456 -0.440547 -1.593627 0.512904 0.000000 0.000000 0.360697 0.000000 0.000000 -19.819378 -9.931488 -1.073574 -55.141426 -12.215093 -5.046424 -43.017544 -3.023013 6.038038 11.998506 2.725384 -3.618719 19.666641 9.770514 -1.034980 55.102482 12.213589 -5.048176 43.013916 3.019573 6.039407 -11.885457 -2.683247 -3.601980 -4.764282 10.165741 6.398355 26.149675 -0.815508 -0.522463 -9.893090 10.022200 -15.081878 -5.085711 -6.446106 -2.207094 26.347130 0.499006 0.631479 -9.770400 -15.246048 12.948133 
0.723890 43.147030 -9.608964 7.654849 0.000000 0.000000 1.476150 -0.489056 -0.401334 20.569538 -0.440723 -1.593752 0.572481 0.000000 0.000000 0.402416 0.000000 0.000000 -19.330841 -10.166054 -0.240835 -55.404289 -12.212259 -4.970607 -43.017544 -3.023014 6.038038 11.929634 2.758893 -3.317751 19.149672 9.972037 -0.195394 55.358391 12.211145 -4.972297 43.013916 3.019573 6.039407 -11.793153 -2.707983 -3.297753 -6.875401 10.137136 6.220452 26.963341 -0.664836 -0.540709 -9.893090 10.022200 -15.081878 -7.179862 -6.386211 -2.130632 27.160406 0.333326 0.647024 -9.770400 -15.246048 12.948133 
0.723890 43.147030 -9.843255 8.935862 0.000000 0.000000 2.087642 -0.489131 -0.401283 17.584478 -0.440905 -1.593867 0.632061 0.000000 0.000000 0.444136 0.000000 0.000000 -18.838345 -10.393680 0.594840 -55.667149 -12.209083 -4.894801 -43.017544 -3.023014 6.038038 11.860935 2.792765 -3.016804 18.629240 10.166142 0.646854 55.614296 12.208371 -4.896428 43.013916 3.019573 6.039407 -11.700976 -2.733211 -2.993545 -8.990439 10.102022 6.043404 27.777206 -0.513873 -0.556819 -9.893090 10.022200 -15.081878 -9.277878 -6.323452 -2.056286 27.973885 0.167390 0.660220 -9.770400 -15.246050 12.948134 
0.723890 43.147030 -10.077546 10.217515 0.000000 0.000000 2.699204 -0.489206 -0.401233 14.591258 -0.441094 -1.593974 0.691644 0.000000 0.000000 0.485857 0.000000 0.000000 -18.342037 -10.614259 1.433298 -55.930019 -12.205567 -4.819009 -43.017551 -3.023014 6.038038 11.792408 2.826998 -2.715877 18.105505 10.352726 1.491588 55.870209 12.205266 -4.820572 43.013920 3.019573 6.039408 -11.608932 -2.758928 -2.689363 -11.107930 10.060443 5.867580 28.591177 -0.362665 -0.570785 -9.893090 10.022200 -15.081878 -11.378353 -6.257939 -1.984215 28.787498 0.001248 0.671061 -9.770400 -15.246048 12.948134 
0.723890 43.147030 -10.311837 11.499490 0.000000 0.000000 3.310801 -0.489282 -0.401184 11.593936 -0.441288 -1.594070 0.751230 0.000000 0.000000 0.527579 0.000000 0.000000 -17.842079 -10.827692 2.274379 -56.192879 -12.201715 -4.743237 -43.017544 -3.023014 6.038038 11.724062 2.861590 -2.414979 17.578659 10.531710 2.338629 56.126102 12.201829 -4.744730 43.013920 3.019573 6.039407 -11.517020 -2.785132 -2.385210 -13.226408 10.012460 5.693345 29.405188 -0.211257 -0.582602 -9.893091 10.022200 -15.081878 -13.479886 -6.189800 -1.914572 29.601160 -0.165049 0.679542 -9.770400 -15.246048 12.948133 
0.723890 43.147030 -10.546128 12.781462 0.000000 0.000000 3.922397 -0.489358 -0.401136 8.596614 -0.441487 -1.594156 0.810819 0.000000 0.000000 0.569302 0.000000 0.000000 -17.338633 -11.033880 3.117921 -56.455727 -12.197522 -4.667483 -43.017544 -3.023014 6.038038 11.655896 2.896540 -2.114114 17.048870 10.703003 3.187796 56.381992 12.198061 -4.668908 43.013916 3.019573 6.039407 -11.425248 -2.811824 -2.081093 -15.344393 9.958169 5.521057 30.219154 -0.059697 -0.592267 -9.893090 10.022200 -15.081878 -15.581059 -6.119167 -1.847497 30.414804 -0.331450 0.685660 -9.770400 -15.246048 12.948133 
0.723890 43.147030 -10.780419 14.063114 0.000000 0.000000 4.533959 -0.489435 -0.401089 5.603395 -0.441690 -1.594231 0.870411 0.000000 0.000000 0.611026 0.000000 0.000000 -16.831852 -11.232732 3.963755 -56.718563 -12.192987 -4.591752 -43.017544 -3.023014 6.038038 11.587912 2.931847 -1.813285 16.516336 10.866532 4.038900 56.637886 12.193963 -4.593104 43.013916 3.019573 6.039407 -11.333619 -2.839002 -1.777016 -17.460413 9.897686 5.351067 31.033024 0.091969 -0.599777 -9.893089 10.022199 -15.081876 -17.680458 -6.046187 -1.783123 31.228373 -0.497902 0.689415 -9.770400 -15.246048 12.948133 
0.723890 43.147030 -11.014711 15.344128 0.000000 0.000000 5.145451 -0.489513 -0.401042 2.618327 -0.441896 -1.594296 0.930006 0.000000 0.000000 0.652752 0.000000 0.000000 -16.321926 -11.424164 4.811708 -56.981380 -12.188115 -4.516046 -43.017544 -3.023014 6.038038 11.520118 2.967509 -1.512498 15.981237 11.022222 4.891749 56.893745 12.189534 -4.517323 43.013916 3.019573 6.039407 -11.242133 -2.866664 -1.472987 -19.573013 9.831159 5.183713 31.846697 0.243694 -0.605131 -9.893089 10.022199 -15.081876 -19.776691 -5.971014 -1.721570 32.041779 -0.664357 0.690806 -9.770399 -15.246048 12.948133 
0.723890 43.147030 -11.249002 16.624180 0.000000 0.000000 5.756839 -0.489591 -0.400996 -0.354582 -0.442105 -1.594350 0.989603 0.000000 0.000000 0.694478 0.000000 0.000000 -15.809018 -11.608095 5.661603 -57.244190 -12.182905 -4.440368 -43.017544 -3.023014 6.038038 11.452510 3.003523 -1.211758 15.443767 11.170008 5.746147 57.149597 12.184774 -4.441567 43.013920 3.019573 6.039407 -11.150802 -2.894809 -1.169009 -21.680746 9.758748 5.019324 32.660118 0.395433 -0.608330 -9.893090 10.022200 -15.081878 -21.868357 -5.893808 -1.662945 32.854958 -0.830762 0.689835 -9.770400 -15.246048 12.948133 
0.723890 43.147030 -11.483294 17.902950 0.000000 0.000000 6.368087 -0.489669 -0.400951 -3.311443 -0.442314 -1.594392 1.049204 0.000000 0.000000 0.736205 0.000000 0.000000 -15.293313 -11.784455 6.513263 -57.506969 -12.177355 -4.364720 -43.017548 -3.023014 6.038039 11.385091 3.039890 -0.911067 14.904129 11.309832 6.601896 57.405426 12.179684 -4.365837 43.013916 3.019573 6.039407 -11.059619 -2.923435 -0.865087 -23.782185 9.680646 4.858210 33.473206 0.547139 -0.609374 -9.893089 10.022200 -15.081880 -23.954082 -5.814738 -1.607343 33.667843 -0.997067 0.686503 -9.770400 -15.246048 12.948133 
0.723890 43.147030 -11.717585 19.180132 0.000000 0.000000 6.979161 -0.489748 -0.400907 -6.248479 -0.442524 -1.594424 1.108808 0.000000 0.000000 0.777933 0.000000 0.000000 -14.774992 -11.953169 7.366498 -57.769714 -12.171463 -4.289103 -43.017551 -3.023014 6.038038 11.317873 3.076607 -0.610433 14.362524 11.441646 7.458796 57.661236 12.174265 -4.290137 43.013916 3.019573 6.039407 -10.968600 -2.952542 -0.561229 -25.875929 9.597062 4.700665 34.285896 0.698765 -0.608266 -9.893091 10.022200 -15.081878 -26.032537 -5.733982 -1.554849 34.480335 -1.163220 0.680815 -9.770401 -15.246050 12.948134 
0.723890 43.147030 -11.951876 20.455402 0.000000 0.000000 7.590026 -0.489827 -0.400864 -9.162077 -0.442734 -1.594444 1.168415 0.000000 0.000000 0.819662 0.000000 0.000000 -14.254247 -12.114183 8.221122 -58.032436 -12.165237 -4.213522 -43.017544 -3.023013 6.038038 11.250849 3.113672 -0.309858 13.819148 11.565402 8.316641 57.917007 12.168514 -4.214467 43.013916 3.019573 6.039406 -10.877742 -2.982128 -0.257437 -27.960625 9.508225 4.546967 35.098114 0.850266 -0.605011 -9.893089 10.022198 -15.081876 -28.102386 -5.651713 -1.505530 35.292400 -1.329172 0.672777 -9.770400 -15.246048 12.948133 
